<?xml version="1.0" standalone="no"?>
<!DOCTYPE svg PUBLIC "-//W3C//DTD SVG 20010904//EN"
 "http://www.w3.org/TR/2001/REC-SVG-20010904/DTD/svg10.dtd">
<svg version="1.0" xmlns="http://www.w3.org/2000/svg"
 width="412.000000pt" height="213.000000pt" viewBox="0 0 412.000000 213.000000"
 preserveAspectRatio="xMidYMid meet">

<g transform="translate(0.000000,213.000000) scale(0.100000,-0.100000)"
fill="#000000" stroke="none">
<path d="M10 1055 c0 -697 3 -1055 10 -1055 7 0 10 355 10 1045 l0 1045 2040
0 2040 0 3 -1047 2 -1048 3 1058 2 1057 -2055 0 -2055 0 0 -1055z"/>
<path d="M90 1040 l0 -990 1980 0 1980 0 0 990 0 990 -1980 0 -1980 0 0 -990z
m3930 0 l0 -960 -1950 0 -1950 0 0 960 0 960 1950 0 1950 0 0 -960z"/>
<path d="M1580 1414 c-31 -9 -60 -69 -70 -145 -5 -41 -10 -192 -10 -336 l0
-263 45 0 45 0 0 105 0 105 50 0 50 0 0 -105 0 -105 46 0 45 0 -3 328 c-3 361
-6 375 -68 407 -27 14 -94 18 -130 9z m91 -81 c11 -12 15 -63 17 -200 l4 -184
-49 3 -48 3 2 177 c1 108 6 184 12 197 14 25 43 27 62 4z"/>
<path d="M1911 1394 c-38 -31 -51 -77 -51 -174 0 -96 17 -130 95 -192 33 -27
65 -58 72 -71 16 -29 17 -179 1 -195 -17 -17 -55 -15 -62 4 -3 9 -9 40 -12 70
l-7 54 -45 0 -45 0 7 -66 c13 -124 47 -164 143 -164 88 0 123 47 130 174 3 47
0 99 -6 124 -12 43 -19 50 -131 150 -44 40 -45 41 -48 114 -3 82 11 121 46
126 26 4 42 -29 42 -84 l0 -34 49 0 50 0 -6 38 c-12 85 -24 113 -56 132 -49
30 -127 27 -166 -6z"/>
<path d="M2842 1410 c-13 -6 -32 -30 -45 -57 -21 -46 -22 -61 -22 -308 0 -279
5 -312 50 -355 19 -18 40 -25 85 -28 55 -4 61 -2 89 25 49 50 56 92 56 363 0
270 -5 302 -56 345 -24 20 -41 25 -82 24 -29 0 -62 -4 -75 -9z m110 -82 c10
-17 13 -90 13 -284 0 -284 -3 -298 -54 -292 -46 5 -53 51 -49 324 3 258 6 274
54 274 14 0 29 -9 36 -22z"/>
<path d="M710 1375 l0 -35 75 0 c44 0 75 -4 75 -10 0 -6 -36 -154 -80 -330
-44 -176 -80 -322 -80 -325 0 -3 59 -5 130 -5 l130 0 0 45 0 45 -76 0 c-67 0
-75 2 -70 18 8 27 156 621 156 627 0 3 -58 5 -130 5 l-130 0 0 -35z"/>
<path d="M1240 1040 l0 -370 45 0 44 0 3 158 3 157 43 3 c41 3 42 4 42 38 0
34 0 34 -45 34 l-45 0 0 140 0 140 50 0 50 0 0 35 0 35 -95 0 -95 0 0 -370z"/>
<path d="M2220 1040 l0 -370 45 0 45 0 0 175 0 175 45 0 45 0 0 -175 0 -175
45 0 45 0 0 370 0 370 -45 0 -45 0 0 -155 0 -155 -45 0 -45 0 0 155 0 155 -45
0 -45 0 0 -370z"/>
<path d="M2590 1040 l0 -370 45 0 45 0 0 370 0 370 -45 0 -45 0 0 -370z"/>
<path d="M3150 1040 l0 -370 45 0 45 0 2 193 3 192 56 -190 57 -190 41 -3 41
-3 0 370 0 371 -45 0 -45 0 -1 -217 -1 -218 -48 180 c-77 284 -65 255 -110
255 l-40 0 0 -370z"/>
</g>
</svg>
