<?xml version="1.0" encoding="UTF-8"?>
<svg width="139.9mm" height="139.9mm" version="1.1" viewBox="0 0 495.71513 495.7148" xmlns="http://www.w3.org/2000/svg">
 <g transform="translate(-828.86 -55.076)">
  <rect x="828.86" y="55.076" width="495.71" height="495.71" ry="0" fill="#f44336" fill-rule="evenodd"/>
  <path d="m1016.2 99.796-0.3047 2.1602c-0.8038 1.9636 0.4747 6.8345-2.207 3.834-3.8202-2.4073-8.4701 2.177-7.0118 5.8301-4.8886-0.66305-11.189 3.4984-9.7109 8.9414-11.033 3.437-21.673 8.0012-32.637 11.646 5.4403 3.1283 12.186 4.314 17.781 5.873-3.9384 4.1655-7.2516 8.8636-10.799 13.354 2.6975 0.83346 8.4915 1.2382 8.7207 4.7148-19.26 20.517-29.749 48.853-28.178 76.971-0.38659 16.369 1.465 32.851 3.7363 48.916-7.6427 10.867-2.0444 25.111 3.0996 35.748 6.7489 12.188 10.793 26.965 22.115 35.922 2.3291 2.7987 8.2399 1.6726 7.6719 6.25 3.8971 21.392 12.589 41.654 23.568 60.328v25.867c-14.718 6.1029-29.436 12.205-44.154 18.309 1.5724 3.431-3.9847 1.896-5.5957 3.918-42.595 17.855-90.59 26.093-127.57 55.561-1.9419 5.8151-3.8842 11.63-5.8262 17.445v9.4062h494.93c-3.0186-8.5686-6.1358-17.094-9.4258-25.543-37.318-33.287-86.656-46.908-132.62-63.561-12.276-5.1404-25.105-10.152-36.631-16.293-0.036-8.5874-4.503-18.856 2.5723-25.834 13.985-20.157 21.925-43.97 27.326-67.555 14.261-7.4474 16.778-25.018 23.127-38.166 4.2346-9.982 7.8135-21.46 4.0547-32.154 0.8681-4.3195 1.5295-9.1286 3.0918-12.959 3.066 3.4968 9.0514 1.2033 8.709-3.5527 0.6102-1.8515-1.0523-5.7808-0.047-6.4512 4.8249 0.8709 3.7896-5.7555 3.457-8.5977 0.6757-22.456 5.1937-46.241-3.584-67.965-6.1872-17.793-18.914-32.763-34.242-43.338-1.7282-2.5893-6.3662-4.1892-6.8203-6.8555 3.6017-3.5192-0.021-9.3101-2.7246-10.922 6.1035-2.4466-0.1418-3.7152-3.209-5.0059-10.313-3.8331-21.862-2.8854-32.076 0.1836-12.064-4.4173-25.194-11.297-38.287-6.9024-8.479-1.2248-14.525-9.27-23.639-8.6875-5.2661-0.38664-10.552-0.0539-15.826-0.18555 6.5569 3.916 3.3949 4.6537-2.4004 4.834-9.1217 0.66118-19.742 0.7082-26.732 7.6894-1.5195-5.8374-4.781-12.8-11.695-13.174z" fill="#fff" fill-rule="evenodd"/>
  <path d="m1136.1 406.6-57.938 39.127-60.193-31.602v40.042s-80.51 53.259-80.51 56.269c0 1.0587 18.184 18.425 41.602 40.355h226.67l38.715-30.574-104.59-38.373z" fill="#fad59d" fill-rule="evenodd"/>
  <path d="m1136.1 406.6-56.133 37.906v106.29h109.66l54.82-49.859-104.58-48.372z" fill="#f9d194" fill-rule="evenodd"/>
  <path d="m1018.2 419.67v5.225c3.1677 3.9492 5.911 10.271 9.649 14.682 17.668 25.955 24.076 26.733 52.224 26.907 30.546 1.3018 32.509-9.8908 44.091-20.898 4.3193-3.8171 8.6387-9.8558 12.958-16.929l-0.627-8.9871-21.736 23.617s-16.833 1.7592-20.178 3.2222c-3.344 1.463-24.122 5.3208-25.167 4.6938s-17.565-3.945-21.118-7.707c-3.5531-3.762-13.376-14.421-14.839-15.048-1.463-0.62701-15.257-8.7781-15.257-8.7781z" fill="#f5c57d" fill-rule="evenodd"/>
  <path d="m1160.8 460.8c-1.2903 41.179-50.933 46.564-79.068 66.189-32.224-19.244-92.875-21.63-89.547-66.021-54.998 29.849-107.76 32.44-152.38 66.611l-7.75 23.209h485.42l-7.0664-21.033c-42.843-37.497-104.33-51.676-149.62-68.955z" fill="#388e3c" fill-rule="evenodd"/>
  <path d="m1157.2 460.09c19.557 15.044-34.264 70.984-75.498 70.473-0.8645-0.0107-3.8496 0.18946-3.8496 0.18946l0.062 20.039h239.54l-7.0664-21.033c-42.248-37.452-94.389-47.343-153.19-69.668z" fill="#2e7d32" fill-rule="evenodd"/>
  <path d="m1051.4 451.04c11.529 4.0396 37.11 4.5134 58.488-2.2802 27.646-17.839 43.429-45.729 53.434-75.329l6.1606-25.668c14.956-5.4743 15.497-21.459 20.134-28.356 0.9481-5.027 12.538-23.774 6.4908-36.93-5.2895-5.5136-18.288-2.8628-25.509 4.4648l12.834-59.705s-25.668-49.662-32.364-53.568-56.916-37.944-56.916-37.944l-51.894 13.95-46.314 20.646s-20.646 35.154-21.204 37.944-3.906 68.633-3.906 68.633l0.92843 4.902c-7.2076 0.57979-14.031 1.6393-13.767 11.559-0.58549 13.833 10.819 30.267 11.209 31.414 5.3944 15.836 14.597 23.904 14.597 23.904s6.8018 4.347 9.4602 2.2394c0.66299 9.2985 3.1319 15.869 4.2713 22.031 10.9 34.473 30.874 69.253 53.865 78.093z" fill="#ffe0b2" fill-rule="evenodd"/>
  <path d="m1094.1 135.72-20.395 4.3301v313.87c10.228-0.30802 25.806-1.8814 36.13-5.1621 27.646-17.839 43.429-45.728 53.434-75.328l6.1621-25.668c14.956-5.4743 15.496-21.461 20.133-28.357 0.9481-5.027 12.54-23.774 6.4922-36.93-5.2895-5.5136-18.289-2.8628-25.51 4.4648l12.834-59.705s-25.667-49.662-32.363-53.568c-6.6959-3.906-56.916-37.943-56.916-37.943z" fill="#ffd596" fill-rule="evenodd"/>
  <path d="m1092.6 281.07c2.1076-4.207 2.1259-9.2769 9.8298-11.173 6.7589-2.9199 10.004-2.2789 13.068-1.4545 19.387-4.8607 31.327 3.2457 43.061 8.0318-13.987-1.946-36.268-7.7256-49.877 3.7228l1.3509-2.5806-4.2489 2.8734 0.2116-1.0957-3.4894 1.8835-0.3892-0.92762-0.8124 1.2639-1.3697-0.2645-1.6965-0.0435-0.1681-0.60079-1.6871 1.3791c-1.205-9e-3 -2.2343 1.0169-3.7822-1.0146z" fill="#333" fill-rule="evenodd"/>
  <path d="m1102.6 311.17c9.5127-18.739 23.107-19.18 40.852-6.0974-9.8134 2.8626-19.729 9.9442-40.852 6.0974z" fill="#fff" fill-rule="evenodd"/>
  <path d="m1113.1 299.92c0.2678 3.7517 1.6505 7.713 4.2985 11.23 5.5509 1.3251 9.0919-0.72552 13.383-2.4351 0.6423-2.7612 1.1188-5.7458 0.7896-9.8157-6.0915-1.7087-11.868-4.5576-18.471 1.0204z" fill="#333" fill-rule="evenodd"/>
  <path d="m990.57 325.32c-3.1596-20.445-0.0137-32.674-4.008-53.37 5.2326 5.4602 20.626-18.618 29.27-23.729-15.705 7.3342-26.296 28.446-28.72 17.452 11.952-3.2755 19.734-13.083 27.81-22.432l-6.5293 7.5615c13.588-5.4822 27.581-10.917 36.439-21.129-5.1039 4.5987-11.116 9.9227-18.428 13.379 4.1022 3.4194 6.1601 2.9843 9.3425 2.8754l-4.1013 2.8762c21.045-4.6648 33.561-10.824 44.477-19.536-4.4851 7.0663-11.746 9.8301-19.193 14.608-1.1737 0.75306-2.265 3.2104-3.4429 3.9908 20.165-5.5961 34.333-21.095 63.925-9.9403-6.0804 4.9135-14.415 0.13075-21.768-3.2989-0.731-0.34093 0.8551 2.3249 0.1157 1.9284 14.872 13.597 26.038 11.002 37.806 7.5228 6.2428 2.9134 12.746 2.3853 19.322 0.88024-4.3182 4.9243-10.874 5.3765-17.375 5.04-0.9813-0.0508-1.1113 0.73465-2.1806 0.57161 7.0627 2.463 14.704 3.9484 21.53-0.31856-2.0281 5.3448-6.9435 6.9081-11.029 9.8594 6.7006-0.18329 12.04-0.62029 16.062-3.1482-3.1247 4.5145-6.0457 6.2767-13.33 11.166l13.893 2.3304-9.3861 1.6465 7.7302 4.5594 4.3373 1.106-3.484 3.311 6.1128-0.59664-3.7451 5.9194 7.1518-0.46312-2.9061 7.1148 0.1554 3.4649 3.816 2.6808-1.5911 30.437c2.5834-10.406 3.2153-23.082 12.251-25.981 1.1875-7.8905-0.1784-19.294 8.664-24.462 3.5319 0.62533 4.6585 2.1282 6.2504 3.4002 0.8962-8.0858 0.3724-18.046 3.5856-25.957l1.2903-1.265 2.2667-6.5258-0.4679-6.4293s5.1052-2.5204 5.7401-6.832c5.4075-36.721-3.7842-69.737-31.839-86.983l-12.849-13.237-1.6587-3.2433c-8.1423-3.4429-11.694-0.58265-19.201-3.4765 3.9084-3.8 12.576 4.3376 18.204 3.116-8.2083-0.84388-18.088-8.6448-24.41-4.7719-7.5002-1.7679-25.198-10.884-33.109-8.9724 0 0-6.915 2.357-11.357 0.95749-3.6402-1.1469-10.8-8.4681-21.95-8.4775l2.0932 3.7193-12.405 0.31744c-11.554 3.7732-19.598-4.0274-34.119 13.182l-4.9505-13.036-0.2308 8.292-6.7252-5.2563 1.2468 4.4467s-0.6092 3.5648 0.059 5.198c0.668 1.6332-4.1645 2.0098-4.1645 2.0098-8.0169-1.492-13.815-0.27268-23.775 3.4184 7.201 1.7002 6.3613 6.5572 5.4831 8.2574-2.9449 1.7745-3.8813 1.6404-8.8403 8.1145 0 0 6.0193 7.7591 1.3717 14.087-14.186 16.174-24.218 34.401-26.47 55.163-1.9232 31.24 0.0544 39.274 3.9368 62.599 9.6836-0.0917 13.667 1.4294 17.565 7.2746 4.5066 3.1683 0.73234 7.8342 5.194 13.512z" fill="#f9d194" fill-rule="evenodd"/>
  <path d="m1104.6 300.43c11.766-11.299 25.053-8.4051 38.525-3.793" fill="none" stroke="#000" stroke-width="1.2227px"/>
  <path d="m1040 392.84c8.347-2.5095 14.45-1.7791 23.869-2.0138l8.8151 1.7504 8.062-1.2077c8.9551-0.17556 21.079-0.23804 31.876 2.5576-11.51 4.4726-17.06 14.099-25.531 16.011-13.771 2.0571-15.73 1.9416-27.298 0.30079-7.1481-4.2627-12.773-13.83-19.793-17.398z" fill="#e9afaf" fill-rule="evenodd"/>
  <path d="m1049.3 395.74 17.55 0.38954 6.4637 2.4952 6.5672-2.6431 19.869 0.39821c-17.095 4.134-34.024 6.2514-50.449-0.6398z" fill="#fff" fill-rule="evenodd"/>
  <path d="m990.57 321.32c-3.1596-20.445-0.0137-32.674-4.008-53.37 5.2326 5.4602 22.412-16.921 31.056-22.033-15.705 7.3342-28.081 26.75-30.505 15.755 11.952-3.2755 19.734-13.083 27.81-22.432l-5.0114 8.7222c13.588-5.4822 26.064-12.078 34.922-22.29-5.1039 4.5987-8.705 13.226-17.356 15.164 4.1023 3.4194 8.6601 0.93073 13.896-0.78536l-9.2798 7.6084c19.616-5.8255 33.115-13.681 44.03-22.393-5.192 8.18-13.805 13.939-22.457 19.67 20.165-5.5961 34.154-22.166 63.746-11.012-6.6848 5.402-14.367 4.2642-22.545-0.12044 14.872 13.597 26.931 9.7521 38.699 6.2728 6.2428 2.9134 12.746 2.3853 19.322 0.88024-4.97 5.6676-10.688 9.7119-18.841 8.4688 7.0627 2.463 13.99 1.0912 20.816-3.1757-2.0281 5.3448-5.1578 9.4081-9.2431 12.359 6.7005-0.18329 10.254-3.1203 14.276-5.6482-3.1247 4.5145-4.4386 8.866-11.723 13.755l12.286-0.25892-8.3147 5.3072 6.6588 0.89872-1.5668 5.0256 2.4201-0.60855-0.3269 4.3278 2.6946 0.99495 1.2171 4.8402 3.0286 1.8115 0.2816 6.7479 3.0584 1.4181-0.9597 28.417c2.5834-10.406 3.2153-23.082 12.251-25.981 1.1875-7.8905-0.1784-14.472 8.664-19.641 3.5319 0.62533 4.8371 1.2353 6.4289 2.5073 0.8962-8.0858 4.9921-21.469 8.2053-29.38l3.7037 8.5892-0.8377-15.099 4.4835 3.5042s-0.025-14.24 0.6101-18.551c5.4075-36.721-7.7128-69.737-35.767-86.983l-12.849-13.237 4.6548-4.0009c-8.1424-3.4429-18.008 0.17496-25.514-2.7189 3.9084-3.8 10.556-3.4911 16.183-4.7127-8.2082-0.84388-16.068-0.81614-22.389 3.0568-7.5002-1.7679-25.198-10.884-33.109-8.9724 0 0-6.915 2.357-11.357 0.9575-3.6402-1.1469-10.8-8.4681-21.95-8.4775l2.0932 3.7193-12.405 0.31745c-11.554 3.7732-19.598-4.0274-34.119 13.182l-4.9505-13.036-0.2308 8.292-6.7252-5.2563 1.2468 4.4468s-12.984-0.98086-12.316 0.65235 8.2099 6.5555 8.2099 6.5555c-8.0169-1.492-18.234 2.884-28.195 6.5751 7.201 1.7002 10.781 3.4004 9.9025 5.1006-2.9449 1.7745-6.5329 5.0496-11.492 11.524 0 0 8.671 4.3498 4.0234 10.678-14.186 16.174-24.218 34.401-26.47 55.163-1.9232 31.24-0.30279 46.417 3.5797 69.742 15.202-3.7041 17.141 10.887 22.045 17.215z" fill="#333" fill-rule="evenodd"/>
  <ellipse cx="1126.7" cy="300.19" rx="2.5155" ry="2.236" fill="#fff" fill-rule="evenodd"/>
  <path d="m1063.1 280.29c-2.2051-4.1568-2.3415-9.2248-10.087-10.941-6.8251-2.7616-10.054-2.0452-13.098-1.1497-19.495-4.4078-31.243 3.9746-42.862 9.0326 13.938-2.2713 36.078-8.5683 49.951 2.56l-1.4106-2.5485 4.3147 2.7737-0.2371-1.0905 3.5323 1.8017 0.3675-0.93643 0.8416 1.2446 1.3631-0.29634 1.6951-0.083 0.1541-0.60454 1.7187 1.3394c1.2044-0.0374 2.2574 0.96454 3.7576-1.1024z" fill="#333" fill-rule="evenodd"/>
  <path d="m1055.1 311.17c-9.5128-18.739-23.107-19.18-40.853-6.0974 9.8135 2.8626 19.729 9.9442 40.853 6.0974z" fill="#fff" fill-rule="evenodd"/>
  <path d="m1044.6 299.92c-0.2678 3.7517-1.6504 7.713-4.2984 11.23-5.5509 1.3251-9.092-0.72552-13.383-2.4351-0.6422-2.7612-1.1188-5.7458-0.7896-9.8157 6.0915-1.7087 11.868-4.5576 18.471 1.0204z" fill="#333" fill-rule="evenodd"/>
  <path d="m1053 300.43c-11.766-11.299-25.053-8.4051-38.525-3.793" fill="none" stroke="#000" stroke-width="1.2227px"/>
  <ellipse transform="scale(-1,1)" cx="-1040.5" cy="300.91" rx="2.5155" ry="2.236" fill="#fff" fill-rule="evenodd"/>
  <path d="m1102.6 310.86c10.853-22.478 27.106-16.175 41.964-6.0714-15.939-8.955-33.347-8.8411-41.964 6.0714z" fill="#333" fill-rule="evenodd"/>
  <path d="m1055.1 310.86c-10.853-22.478-27.106-16.175-41.964-6.0714 15.939-8.955 33.347-8.8411 41.964 6.0714z" fill="#333" fill-rule="evenodd"/>
  <path d="m980.2 299.49c-4.0505-6.9753-12.519-15.808-16.177-7.5243 0.1325 4.7511 1.569 15.547 5.4551 21.068 1.8049 4.9375 9.4739 20.016 13.167 29.157 0 0 6.5511 2.9083 9.6862-0.188-4.5778-12.803-7.051-22.062-9.2745-37.691z" fill="#ffd596" fill-rule="evenodd"/>
  <path d="m1177.2 298.24c4.0506-6.9753 12.519-15.808 16.177-7.5243-0.1325 4.7511-1.569 15.547-5.4551 21.068-1.8049 4.9375-5.7239 12.338-9.4174 21.478 0 0-6.7296 7.3726-9.8647 4.2763 0.8278-14.053 1.8724-19.384 5.703-34.476z" fill="#f9d194" fill-rule="evenodd"/>
  <path d="m1017.4 450.41 0.4828 4.0406-15.722 12.995c4.5983 61.962 138.34 74.036 151.01-3.6169l-13.036-11.429-0.7142-2.3214 39.643 17.143c-28.982 80.454-158.54 105.13-203.93 0.71429z" fill="#2e7d32" fill-rule="evenodd"/>
  <path d="m990.57 321.32c-3.1596-20.445-0.0137-32.674-4.008-53.37 5.2326 5.4602 22.412-16.921 31.056-22.033-15.705 7.3342-28.081 26.75-30.505 15.755 11.952-3.2755 19.734-13.083 27.81-22.432l-5.0114 8.7222c13.588-5.4822 26.064-12.078 34.922-22.29-5.1039 4.5987-8.705 13.226-17.356 15.164 4.1023 3.4194 8.6601 0.93073 13.896-0.78536l-9.2798 7.6084c19.616-5.8255 33.115-13.681 44.03-22.393-5.192 8.18-13.805 13.939-22.457 19.67 20.165-5.5961 34.154-22.166 63.746-11.012-6.6848 5.402-14.367 4.2642-22.545-0.12044 14.872 13.597 26.931 9.7521 38.699 6.2728 6.2428 2.9134 12.746 2.3853 19.322 0.88024-4.97 5.6676-10.688 9.7119-18.841 8.4688 7.0627 2.463 13.99 1.0912 20.816-3.1757-2.0281 5.3448-5.1578 9.4081-9.2431 12.359 6.7005-0.18329 10.254-3.1203 14.276-5.6482-3.1247 4.5145-4.4386 8.866-11.723 13.755l12.286-0.25892-8.3147 5.3072 6.6588 0.89872-1.5668 5.0256 2.4201-0.60855-0.3269 4.3278 2.6946 0.99495 1.2171 4.8402 3.0286 1.8115 0.2816 6.7479 3.0584 1.4181-0.9597 28.417c2.5834-10.406 3.2153-23.082 12.251-25.981 1.1875-7.8905-0.1784-14.472 8.664-19.641 3.5319 0.62533 4.8371 1.2353 6.4289 2.5073 0.8962-8.0858 4.9921-21.469 8.2053-29.38l3.7037 8.5892-0.8377-15.099 4.4835 3.5042s-0.025-14.24 0.6101-18.551c5.4075-36.721-7.7128-69.737-35.767-86.983l-12.849-13.237 4.6548-4.0009c-8.1424-3.4429-18.008 0.17496-25.514-2.7189 3.9084-3.8 10.556-3.4911 16.183-4.7127-8.2082-0.84388-16.068-0.81614-22.389 3.0568-7.5002-1.7679-25.198-10.884-33.109-8.9724 0 0-6.915 2.357-11.357 0.9575-3.6402-1.1469-10.8-8.4681-21.95-8.4775l2.0932 3.7193-12.405 0.31745c-11.554 3.7732-19.598-4.0274-34.119 13.182l-4.9505-13.036-0.2308 8.292-6.7252-5.2563 1.2468 4.4468s-12.984-0.98086-12.316 0.65235 8.2099 6.5555 8.2099 6.5555c-8.0169-1.492-18.234 2.884-28.195 6.5751 7.201 1.7002 10.781 3.4004 9.9025 5.1006-2.9449 1.7745-6.5329 5.0496-11.492 11.524 0 0 8.671 4.3498 4.0234 10.678-14.186 16.174-24.218 34.401-26.47 55.163-1.9232 31.24-0.30279 46.417 3.5797 69.742 15.202-3.7041 17.141 10.887 22.045 17.215z" fill-opacity="0"/>
  <path d="m1078 107.77v126.93c10.757-4.4863 22.548-7.1358 39.406-0.78125-6.6847 5.402-14.367 4.2655-22.545-0.11914 14.872 13.597 26.931 9.7507 38.699 6.2715 6.2428 2.9134 12.746 2.3859 19.322 0.88086-4.97 5.6676-10.688 9.7119-18.842 8.4688 7.0627 2.463 13.991 1.0911 20.816-3.1758-2.0281 5.3448-5.1569 9.4081-9.2422 12.359 6.7005-0.18329 10.254-3.1205 14.275-5.6484-3.1247 4.5145-4.4386 8.8671-11.723 13.756l12.285-0.25977-8.3145 5.3066 6.6582 0.89844-1.5664 5.0254 2.4199-0.60742-0.3261 4.3281 2.6933 0.99414 1.2188 4.8398 3.0273 1.8125 0.2813 6.748 3.0586 1.418-0.959 28.416c2.5834-10.406 3.2147-23.081 12.25-25.98 1.1875-7.8905-0.1784-14.472 8.664-19.641 3.5319 0.62533 4.8378 1.2358 6.4297 2.5078 0.8962-8.0858 4.9918-21.47 8.2051-29.381l3.7031 8.5898-0.8379-15.1 4.4844 3.5039s-0.025-14.239 0.6094-18.551c5.4075-36.721-7.7132-69.738-35.768-86.984l-12.848-13.236 4.6543-4.002c-8.1424-3.4429-18.007 0.17507-25.514-2.7188 3.9084-3.8 10.556-3.4893 16.184-4.7109-8.2083-0.84388-16.069-0.81631-22.391 3.0566-7.5002-1.7679-25.198-10.884-33.109-8.9727 0 0-6.9135 2.3566-11.356 0.95704-2.6862-0.84634-7.2976-5.0477-14.006-7.1992z" fill-opacity="0"/>
  <path d="m1139.4 450.08 0.7148 4.4643 13.035 9.2857c-6.1375 37.607-40.671 54.169-75.178 54.211v19.125c43.573-1.2678 85.971-28.027 101.07-69.943z" fill="#1b5e20" fill-rule="evenodd"/>
  <path d="m1076.1 354.96 0.6206 20.484-21.35-2.6332z" fill="#ffd596" fill-rule="evenodd"/>
 </g>
</svg>
